M48
; DRILL file {KiCad (6.0.6-0)} date Thursday, October 13, 2022 at 05:11:41 PM
; FORMAT={-:-/ absolute / metric / decimal}
; #@! TF.CreationDate,2022-10-13T17:11:41-07:00
; #@! TF.GenerationSoftware,Kicad,Pcbnew,(6.0.6-0)
; #@! TF.FileFunction,Plated,1,2,PTH
FMAT,2
METRIC
; #@! TA.AperFunction,Plated,PTH,ViaDrill
T1C0.300
; #@! TA.AperFunction,Plated,PTH,ViaDrill
T2C0.400
; #@! TA.AperFunction,Plated,PTH,ComponentDrill
T3C0.800
; #@! TA.AperFunction,Plated,PTH,ViaDrill
T4C1.000
; #@! TA.AperFunction,Plated,PTH,ComponentDrill
T5C1.000
; #@! TA.AperFunction,Plated,PTH,ComponentDrill
T6C1.100
; #@! TA.AperFunction,Plated,PTH,ComponentDrill
T7C1.200
; #@! TA.AperFunction,Plated,PTH,ComponentDrill
T8C1.320
; #@! TA.AperFunction,Plated,PTH,ComponentDrill
T9C2.000
%
G90
G05
T1
X71.12Y-74.676
X77.216Y-74.676
X79.756Y-53.848
X108.204Y-50.292
X108.585Y-45.085
T2
X76.835Y-94.615
X78.74Y-92.075
X80.01Y-92.71
X84.455Y-93.345
X84.455Y-95.25
X92.71Y-99.06
X93.98Y-120.65
X96.52Y-113.03
X101.6Y-118.11
X101.6Y-120.65
X102.87Y-100.33
X102.87Y-105.41
X104.14Y-106.68
X107.95Y-111.76
X119.38Y-128.905
X121.92Y-124.46
X123.19Y-130.81
X129.54Y-68.58
T3
X68.57Y-55.87
X68.575Y-44.465
X68.575Y-52.085
X68.58Y-59.69
X68.58Y-62.23
X68.58Y-64.77
X68.58Y-67.31
X71.115Y-44.465
X71.115Y-52.085
X73.655Y-44.465
X73.655Y-52.085
X74.295Y-107.95
X74.295Y-115.57
X74.295Y-119.46
X74.295Y-124.46
X76.19Y-55.87
X76.195Y-44.465
X76.195Y-52.085
X76.2Y-59.69
X76.2Y-62.23
X76.2Y-64.77
X76.2Y-67.31
X78.735Y-44.465
X78.735Y-52.085
X78.74Y-97.165
X78.74Y-99.705
X78.74Y-102.245
X78.74Y-104.785
X78.74Y-107.325
X78.74Y-109.865
X78.74Y-112.405
X78.74Y-114.945
X80.01Y-55.88
X80.01Y-66.04
X81.275Y-44.465
X81.275Y-52.085
X81.36Y-60.96
X82.54Y-85.08
X82.54Y-87.62
X82.54Y-90.16
X82.54Y-92.7
X82.54Y-95.24
X82.54Y-97.78
X82.54Y-100.32
X82.54Y-102.86
X82.54Y-105.4
X82.54Y-107.94
X82.54Y-110.48
X82.54Y-113.02
X82.54Y-115.56
X82.54Y-118.1
X83.815Y-44.465
X83.815Y-52.085
X86.36Y-60.96
X86.995Y-76.24
X86.995Y-81.24
X87.63Y-51.816
X87.63Y-55.88
X87.63Y-66.04
X90.16Y-85.08
X90.16Y-87.62
X90.16Y-90.16
X90.16Y-92.7
X90.16Y-95.24
X90.16Y-97.78
X90.16Y-100.32
X90.16Y-102.86
X90.16Y-105.4
X90.16Y-107.94
X90.16Y-110.48
X90.16Y-113.02
X90.16Y-115.56
X90.16Y-118.1
X90.17Y-51.816
X91.44Y-76.24
X91.44Y-81.24
X92.075Y-45.72
X92.71Y-51.816
X94.615Y-45.72
X95.25Y-51.816
X95.29Y-85.725
X96.52Y-127.0
X97.155Y-45.72
X97.79Y-51.816
X99.06Y-55.88
X99.695Y-45.72
X100.29Y-85.725
X100.33Y-51.816
X102.235Y-45.72
X103.632Y-51.816
X104.14Y-127.0
X104.775Y-45.72
X106.68Y-55.88
X106.68Y-127.0
X110.49Y-55.88
X110.53Y-85.09
X111.252Y-51.816
X114.3Y-127.0
X114.564Y-44.465
X114.564Y-52.085
X115.53Y-85.09
X117.104Y-44.465
X117.104Y-52.085
X118.11Y-55.88
X119.38Y-59.73
X119.38Y-64.73
X119.644Y-44.465
X119.644Y-52.085
X122.184Y-44.465
X122.184Y-52.085
X127.0Y-118.11
X127.015Y-55.88
X127.015Y-63.5
X132.08Y-76.2
X134.62Y-118.11
X139.7Y-76.2
T4
X88.9Y-46.99
X94.615Y-64.135
T5
X67.17Y-77.68
X67.17Y-80.22
X67.17Y-82.76
X67.17Y-85.3
X67.17Y-87.84
X67.17Y-90.38
X67.17Y-92.92
X67.17Y-95.46
X67.17Y-98.0
X67.17Y-100.54
X67.17Y-103.08
X67.17Y-105.62
X67.17Y-108.16
X67.17Y-110.7
X67.17Y-113.24
X67.17Y-115.78
X67.17Y-118.32
X67.17Y-120.86
X67.17Y-123.4
X67.17Y-125.94
X69.71Y-77.68
X69.71Y-80.22
X69.71Y-82.76
X69.71Y-85.3
X69.71Y-87.84
X69.71Y-90.38
X69.71Y-92.92
X69.71Y-95.46
X69.71Y-98.0
X69.71Y-100.54
X69.71Y-103.08
X69.71Y-105.62
X69.71Y-108.16
X69.71Y-110.7
X69.71Y-113.24
X69.71Y-115.78
X69.71Y-118.32
X69.71Y-120.86
X69.71Y-123.4
X69.71Y-125.94
X73.66Y-129.54
X74.168Y-83.82
X76.2Y-129.54
X78.74Y-129.54
X79.375Y-72.39
X81.28Y-129.54
X83.82Y-129.54
X86.36Y-129.54
X91.44Y-55.88
X91.44Y-60.96
X91.44Y-66.04
X97.79Y-132.08
X100.33Y-132.08
X102.87Y-132.08
X105.41Y-132.08
X119.38Y-81.915
X119.38Y-84.455
X121.92Y-81.915
X121.92Y-84.455
X124.46Y-81.915
X124.46Y-84.455
X143.51Y-116.855
X143.51Y-119.395
X143.51Y-121.935
X143.51Y-125.73
X143.51Y-128.27
X143.51Y-130.81
X143.51Y-133.35
X144.78Y-55.89
X144.78Y-58.43
X144.78Y-60.97
X144.78Y-63.51
X144.78Y-68.59
X144.78Y-71.13
X144.78Y-73.67
X144.78Y-76.21
T6
X74.295Y-99.695
X74.295Y-102.235
X74.295Y-104.775
X74.36Y-89.535
X74.36Y-92.075
X74.36Y-94.615
X96.52Y-61.89
X99.06Y-61.89
X101.6Y-61.89
X107.95Y-62.08
X110.49Y-62.08
X113.03Y-62.08
X123.515Y-69.85
X123.515Y-72.39
X123.515Y-74.93
T7
X137.16Y-83.82
X137.16Y-91.32
X137.16Y-102.658
X137.16Y-110.158
T8
X130.585Y-128.27
X134.065Y-59.69
X135.585Y-128.27
X139.065Y-59.69
T9
X109.22Y-91.68
X109.22Y-121.68
T0
M30
