G04 #@! TF.GenerationSoftware,KiCad,Pcbnew,(6.0.6-0)*
G04 #@! TF.CreationDate,2022-09-27T20:01:57-07:00*
G04 #@! TF.ProjectId,Atverter_Ev1r4,41747665-7274-4657-925f-45763172342e,rev?*
G04 #@! TF.SameCoordinates,Original*
G04 #@! TF.FileFunction,Legend,Bot*
G04 #@! TF.FilePolarity,Positive*
%FSLAX46Y46*%
G04 Gerber Fmt 4.6, Leading zero omitted, Abs format (unit mm)*
G04 Created by KiCad (PCBNEW (6.0.6-0)) date 2022-09-27 20:01:57*
%MOMM*%
%LPD*%
G01*
G04 APERTURE LIST*
%ADD10C,0.150000*%
%ADD11C,0.120000*%
%ADD12R,1.700000X1.700000*%
%ADD13O,1.600000X1.600000*%
%ADD14R,1.600000X1.600000*%
%ADD15O,1.700000X1.700000*%
%ADD16C,1.600000*%
%ADD17C,4.000000*%
%ADD18O,3.500000X3.500000*%
%ADD19R,1.905000X2.000000*%
%ADD20O,1.905000X2.000000*%
%ADD21R,2.400000X2.400000*%
%ADD22C,2.400000*%
%ADD23C,2.100000*%
%ADD24R,1.600000X2.400000*%
%ADD25O,1.600000X2.400000*%
%ADD26C,1.500000*%
%ADD27R,2.400000X1.600000*%
%ADD28O,2.400000X1.600000*%
%ADD29R,1.980000X3.960000*%
%ADD30O,1.980000X3.960000*%
%ADD31R,2.000000X1.905000*%
%ADD32O,2.000000X1.905000*%
G04 APERTURE END LIST*
D10*
X72842380Y-97496904D02*
X71842380Y-97496904D01*
X71842380Y-97877857D01*
X71890000Y-97973095D01*
X71937619Y-98020714D01*
X72032857Y-98068333D01*
X72175714Y-98068333D01*
X72270952Y-98020714D01*
X72318571Y-97973095D01*
X72366190Y-97877857D01*
X72366190Y-97496904D01*
X72842380Y-98496904D02*
X72175714Y-98496904D01*
X71842380Y-98496904D02*
X71890000Y-98449285D01*
X71937619Y-98496904D01*
X71890000Y-98544523D01*
X71842380Y-98496904D01*
X71937619Y-98496904D01*
X72747142Y-99544523D02*
X72794761Y-99496904D01*
X72842380Y-99354047D01*
X72842380Y-99258809D01*
X72794761Y-99115952D01*
X72699523Y-99020714D01*
X72604285Y-98973095D01*
X72413809Y-98925476D01*
X72270952Y-98925476D01*
X72080476Y-98973095D01*
X71985238Y-99020714D01*
X71890000Y-99115952D01*
X71842380Y-99258809D01*
X71842380Y-99354047D01*
X71890000Y-99496904D01*
X71937619Y-99544523D01*
X72842380Y-100115952D02*
X72794761Y-100020714D01*
X72747142Y-99973095D01*
X72651904Y-99925476D01*
X72366190Y-99925476D01*
X72270952Y-99973095D01*
X72223333Y-100020714D01*
X72175714Y-100115952D01*
X72175714Y-100258809D01*
X72223333Y-100354047D01*
X72270952Y-100401666D01*
X72366190Y-100449285D01*
X72651904Y-100449285D01*
X72747142Y-100401666D01*
X72794761Y-100354047D01*
X72842380Y-100258809D01*
X72842380Y-100115952D01*
X72175714Y-100877857D02*
X72842380Y-100877857D01*
X72270952Y-100877857D02*
X72223333Y-100925476D01*
X72175714Y-101020714D01*
X72175714Y-101163571D01*
X72223333Y-101258809D01*
X72318571Y-101306428D01*
X72842380Y-101306428D01*
X72175714Y-101782619D02*
X72842380Y-101782619D01*
X72270952Y-101782619D02*
X72223333Y-101830238D01*
X72175714Y-101925476D01*
X72175714Y-102068333D01*
X72223333Y-102163571D01*
X72318571Y-102211190D01*
X72842380Y-102211190D01*
X72794761Y-103068333D02*
X72842380Y-102973095D01*
X72842380Y-102782619D01*
X72794761Y-102687380D01*
X72699523Y-102639761D01*
X72318571Y-102639761D01*
X72223333Y-102687380D01*
X72175714Y-102782619D01*
X72175714Y-102973095D01*
X72223333Y-103068333D01*
X72318571Y-103115952D01*
X72413809Y-103115952D01*
X72509047Y-102639761D01*
X72794761Y-103973095D02*
X72842380Y-103877857D01*
X72842380Y-103687380D01*
X72794761Y-103592142D01*
X72747142Y-103544523D01*
X72651904Y-103496904D01*
X72366190Y-103496904D01*
X72270952Y-103544523D01*
X72223333Y-103592142D01*
X72175714Y-103687380D01*
X72175714Y-103877857D01*
X72223333Y-103973095D01*
X72175714Y-104258809D02*
X72175714Y-104639761D01*
X71842380Y-104401666D02*
X72699523Y-104401666D01*
X72794761Y-104449285D01*
X72842380Y-104544523D01*
X72842380Y-104639761D01*
X72842380Y-105115952D02*
X72794761Y-105020714D01*
X72747142Y-104973095D01*
X72651904Y-104925476D01*
X72366190Y-104925476D01*
X72270952Y-104973095D01*
X72223333Y-105020714D01*
X72175714Y-105115952D01*
X72175714Y-105258809D01*
X72223333Y-105354047D01*
X72270952Y-105401666D01*
X72366190Y-105449285D01*
X72651904Y-105449285D01*
X72747142Y-105401666D01*
X72794761Y-105354047D01*
X72842380Y-105258809D01*
X72842380Y-105115952D01*
X72842380Y-105877857D02*
X72175714Y-105877857D01*
X72366190Y-105877857D02*
X72270952Y-105925476D01*
X72223333Y-105973095D01*
X72175714Y-106068333D01*
X72175714Y-106163571D01*
X72842380Y-107020714D02*
X72842380Y-106449285D01*
X72842380Y-106735000D02*
X71842380Y-106735000D01*
X71985238Y-106639761D01*
X72080476Y-106544523D01*
X72128095Y-106449285D01*
D11*
X71040000Y-124670000D02*
X71040000Y-76350000D01*
X95000000Y-84370000D02*
X95000000Y-88850000D01*
X95700000Y-116200000D02*
X95700000Y-127620000D01*
X95000000Y-72310000D02*
X95000000Y-76250000D01*
X65840000Y-127270000D02*
X68440000Y-127270000D01*
X95000000Y-88850000D02*
X96800000Y-88850000D01*
X95000000Y-76250000D02*
X96800000Y-76250000D01*
X96800000Y-84370000D02*
X95000000Y-84370000D01*
X65840000Y-76350000D02*
X71040000Y-76350000D01*
X96800000Y-76250000D02*
X96800000Y-84370000D01*
X69710000Y-127270000D02*
X71040000Y-127270000D01*
X68440000Y-127270000D02*
X68440000Y-124670000D01*
X64880000Y-72310000D02*
X64880000Y-131310000D01*
X71380000Y-69250000D02*
X71380000Y-68050000D01*
X65840000Y-127270000D02*
X65840000Y-76350000D01*
X67940000Y-134370000D02*
X91940000Y-134370000D01*
X95000000Y-127620000D02*
X95000000Y-131310000D01*
X96800000Y-96970000D02*
X95000000Y-96970000D01*
X68440000Y-124670000D02*
X71040000Y-124670000D01*
X95000000Y-96970000D02*
X95000000Y-116200000D01*
X95000000Y-116200000D02*
X95700000Y-116200000D01*
X96800000Y-88850000D02*
X96800000Y-96970000D01*
X88500000Y-69250000D02*
X91940000Y-69250000D01*
X71380000Y-69250000D02*
X67940000Y-69250000D01*
X95700000Y-127620000D02*
X95000000Y-127620000D01*
X71040000Y-127270000D02*
X71040000Y-125940000D01*
X71380000Y-68050000D02*
X88500000Y-68050000D01*
X88500000Y-68050000D02*
X88500000Y-69250000D01*
X91940000Y-134370000D02*
G75*
G03*
X95000000Y-131310000I0J3060000D01*
G01*
X67940000Y-69250000D02*
G75*
G03*
X64880000Y-72310000I-1J-3059999D01*
G01*
X95000000Y-72310000D02*
G75*
G03*
X91940000Y-69250000I-3060000J0D01*
G01*
X64880000Y-131310000D02*
G75*
G03*
X67940000Y-134370000I3059999J-1D01*
G01*
%LPC*%
D12*
X74168000Y-83820000D03*
D13*
X87630000Y-51816000D03*
X90170000Y-51816000D03*
X92710000Y-51816000D03*
X95250000Y-51816000D03*
X97790000Y-51816000D03*
D14*
X100330000Y-51816000D03*
D15*
X124460000Y-81915000D03*
X124460000Y-84455000D03*
X121920000Y-81915000D03*
X121920000Y-84455000D03*
X119380000Y-81915000D03*
D12*
X119380000Y-84455000D03*
X91440000Y-60960000D03*
D16*
X74295000Y-107950000D03*
D13*
X74295000Y-115570000D03*
D17*
X109220000Y-91680000D03*
X109220000Y-121680000D03*
D18*
X99060000Y-78550000D03*
D19*
X101600000Y-61890000D03*
D20*
X99060000Y-61890000D03*
X96520000Y-61890000D03*
D12*
X144780000Y-68590000D03*
D15*
X144780000Y-71130000D03*
X144780000Y-73670000D03*
X144780000Y-76210000D03*
D12*
X91440000Y-66040000D03*
D16*
X87630000Y-55880000D03*
D13*
X80010000Y-55880000D03*
D21*
X137160000Y-83820000D03*
D22*
X137160000Y-91320000D03*
D16*
X87630000Y-66040000D03*
D13*
X80010000Y-66040000D03*
D14*
X90160000Y-118100000D03*
D13*
X90160000Y-115560000D03*
X90160000Y-113020000D03*
X90160000Y-110480000D03*
X90160000Y-107940000D03*
X90160000Y-105400000D03*
X90160000Y-102860000D03*
X90160000Y-100320000D03*
X90160000Y-97780000D03*
X90160000Y-95240000D03*
X90160000Y-92700000D03*
X90160000Y-90160000D03*
X90160000Y-87620000D03*
X90160000Y-85080000D03*
X82540000Y-85080000D03*
X82540000Y-87620000D03*
X82540000Y-90160000D03*
X82540000Y-92700000D03*
X82540000Y-95240000D03*
X82540000Y-97780000D03*
X82540000Y-100320000D03*
X82540000Y-102860000D03*
X82540000Y-105400000D03*
X82540000Y-107940000D03*
X82540000Y-110480000D03*
X82540000Y-113020000D03*
X82540000Y-115560000D03*
X82540000Y-118100000D03*
D16*
X74295000Y-124460000D03*
X74295000Y-119460000D03*
X114300000Y-127000000D03*
D13*
X106680000Y-127000000D03*
D14*
X78740000Y-114945000D03*
D13*
X78740000Y-112405000D03*
X78740000Y-109865000D03*
X78740000Y-107325000D03*
X78740000Y-104785000D03*
X78740000Y-102245000D03*
X78740000Y-99705000D03*
X78740000Y-97165000D03*
D23*
X74295000Y-104775000D03*
X74295000Y-102235000D03*
X74295000Y-99695000D03*
D16*
X119380000Y-59730000D03*
X119380000Y-64730000D03*
D24*
X68575000Y-52085000D03*
D25*
X71115000Y-52085000D03*
X73655000Y-52085000D03*
X76195000Y-52085000D03*
X78735000Y-52085000D03*
X81275000Y-52085000D03*
X83815000Y-52085000D03*
X83815000Y-44465000D03*
X81275000Y-44465000D03*
X78735000Y-44465000D03*
X76195000Y-44465000D03*
X73655000Y-44465000D03*
X71115000Y-44465000D03*
X68575000Y-44465000D03*
D23*
X74360370Y-94615000D03*
X74360370Y-92075000D03*
X74360370Y-89535000D03*
D18*
X110490000Y-78740000D03*
D19*
X113030000Y-62080000D03*
D20*
X110490000Y-62080000D03*
X107950000Y-62080000D03*
D16*
X86995000Y-81240000D03*
X86995000Y-76240000D03*
X104140000Y-127000000D03*
D13*
X96520000Y-127000000D03*
D24*
X114564000Y-52085000D03*
D25*
X117104000Y-52085000D03*
X119644000Y-52085000D03*
X122184000Y-52085000D03*
X122184000Y-44465000D03*
X119644000Y-44465000D03*
X117104000Y-44465000D03*
X114564000Y-44465000D03*
D16*
X103632000Y-51816000D03*
D13*
X111252000Y-51816000D03*
D26*
X95290000Y-85725000D03*
X100290000Y-85725000D03*
D14*
X92075000Y-45720000D03*
D13*
X94615000Y-45720000D03*
X97155000Y-45720000D03*
X99695000Y-45720000D03*
X102235000Y-45720000D03*
X104775000Y-45720000D03*
D14*
X132080000Y-76200000D03*
D13*
X139700000Y-76200000D03*
D16*
X115530000Y-85090000D03*
X110530000Y-85090000D03*
D12*
X79375000Y-72390000D03*
D14*
X76190000Y-55870000D03*
D13*
X68570000Y-55870000D03*
D27*
X68580000Y-59690000D03*
D28*
X68580000Y-62230000D03*
X68580000Y-64770000D03*
X68580000Y-67310000D03*
X76200000Y-67310000D03*
X76200000Y-64770000D03*
X76200000Y-62230000D03*
X76200000Y-59690000D03*
D29*
X139065000Y-59690000D03*
D30*
X134065000Y-59690000D03*
D21*
X137160000Y-110157780D03*
D22*
X137160000Y-102657780D03*
D12*
X143510000Y-116855000D03*
D15*
X143510000Y-119395000D03*
X143510000Y-121935000D03*
D14*
X127000000Y-118110000D03*
D13*
X134620000Y-118110000D03*
D16*
X127015000Y-55880000D03*
D13*
X127015000Y-63500000D03*
D16*
X106680000Y-55880000D03*
D13*
X99060000Y-55880000D03*
D16*
X86360000Y-60960000D03*
X81360000Y-60960000D03*
D12*
X86360000Y-129540000D03*
D15*
X83820000Y-129540000D03*
X81280000Y-129540000D03*
X78740000Y-129540000D03*
X76200000Y-129540000D03*
X73660000Y-129540000D03*
D12*
X143510000Y-125730000D03*
D15*
X143510000Y-128270000D03*
X143510000Y-130810000D03*
X143510000Y-133350000D03*
D12*
X91440000Y-55880000D03*
X97790000Y-132080000D03*
D15*
X100330000Y-132080000D03*
X102870000Y-132080000D03*
X105410000Y-132080000D03*
D12*
X144780000Y-55890000D03*
D15*
X144780000Y-58430000D03*
X144780000Y-60970000D03*
X144780000Y-63510000D03*
D31*
X123515000Y-69850000D03*
D32*
X123515000Y-72390000D03*
X123515000Y-74930000D03*
D16*
X118110000Y-55880000D03*
D13*
X110490000Y-55880000D03*
D29*
X130585000Y-128270000D03*
D30*
X135585000Y-128270000D03*
D16*
X91440000Y-76240000D03*
X91440000Y-81240000D03*
D12*
X69710000Y-125940000D03*
D15*
X67170000Y-125940000D03*
X69710000Y-123400000D03*
X67170000Y-123400000D03*
X69710000Y-120860000D03*
X67170000Y-120860000D03*
X69710000Y-118320000D03*
X67170000Y-118320000D03*
X69710000Y-115780000D03*
X67170000Y-115780000D03*
X69710000Y-113240000D03*
X67170000Y-113240000D03*
X69710000Y-110700000D03*
X67170000Y-110700000D03*
X69710000Y-108160000D03*
X67170000Y-108160000D03*
X69710000Y-105620000D03*
X67170000Y-105620000D03*
X69710000Y-103080000D03*
X67170000Y-103080000D03*
X69710000Y-100540000D03*
X67170000Y-100540000D03*
X69710000Y-98000000D03*
X67170000Y-98000000D03*
X69710000Y-95460000D03*
X67170000Y-95460000D03*
X69710000Y-92920000D03*
X67170000Y-92920000D03*
X69710000Y-90380000D03*
X67170000Y-90380000D03*
X69710000Y-87840000D03*
X67170000Y-87840000D03*
X69710000Y-85300000D03*
X67170000Y-85300000D03*
X69710000Y-82760000D03*
X67170000Y-82760000D03*
X69710000Y-80220000D03*
X67170000Y-80220000D03*
X69710000Y-77680000D03*
X67170000Y-77680000D03*
M02*
