G04 #@! TF.GenerationSoftware,KiCad,Pcbnew,(6.0.6-0)*
G04 #@! TF.CreationDate,2022-09-27T20:01:56-07:00*
G04 #@! TF.ProjectId,Atverter_Ev1r4,41747665-7274-4657-925f-45763172342e,rev?*
G04 #@! TF.SameCoordinates,Original*
G04 #@! TF.FileFunction,Copper,L1,Top*
G04 #@! TF.FilePolarity,Positive*
%FSLAX46Y46*%
G04 Gerber Fmt 4.6, Leading zero omitted, Abs format (unit mm)*
G04 Created by KiCad (PCBNEW (6.0.6-0)) date 2022-09-27 20:01:56*
%MOMM*%
%LPD*%
G01*
G04 APERTURE LIST*
G04 Aperture macros list*
%AMRoundRect*
0 Rectangle with rounded corners*
0 $1 Rounding radius*
0 $2 $3 $4 $5 $6 $7 $8 $9 X,Y pos of 4 corners*
0 Add a 4 corners polygon primitive as box body*
4,1,4,$2,$3,$4,$5,$6,$7,$8,$9,$2,$3,0*
0 Add four circle primitives for the rounded corners*
1,1,$1+$1,$2,$3*
1,1,$1+$1,$4,$5*
1,1,$1+$1,$6,$7*
1,1,$1+$1,$8,$9*
0 Add four rect primitives between the rounded corners*
20,1,$1+$1,$2,$3,$4,$5,0*
20,1,$1+$1,$4,$5,$6,$7,0*
20,1,$1+$1,$6,$7,$8,$9,0*
20,1,$1+$1,$8,$9,$2,$3,0*%
G04 Aperture macros list end*
G04 #@! TA.AperFunction,ComponentPad*
%ADD10R,1.700000X1.700000*%
G04 #@! TD*
G04 #@! TA.AperFunction,ComponentPad*
%ADD11O,1.600000X1.600000*%
G04 #@! TD*
G04 #@! TA.AperFunction,ComponentPad*
%ADD12R,1.600000X1.600000*%
G04 #@! TD*
G04 #@! TA.AperFunction,ComponentPad*
%ADD13O,1.700000X1.700000*%
G04 #@! TD*
G04 #@! TA.AperFunction,ComponentPad*
%ADD14C,1.600000*%
G04 #@! TD*
G04 #@! TA.AperFunction,ComponentPad*
%ADD15C,4.000000*%
G04 #@! TD*
G04 #@! TA.AperFunction,ComponentPad*
%ADD16R,1.905000X2.000000*%
G04 #@! TD*
G04 #@! TA.AperFunction,ComponentPad*
%ADD17O,1.905000X2.000000*%
G04 #@! TD*
G04 #@! TA.AperFunction,ComponentPad*
%ADD18R,2.400000X2.400000*%
G04 #@! TD*
G04 #@! TA.AperFunction,ComponentPad*
%ADD19C,2.400000*%
G04 #@! TD*
G04 #@! TA.AperFunction,SMDPad,CuDef*
%ADD20RoundRect,0.150000X1.100000X0.150000X-1.100000X0.150000X-1.100000X-0.150000X1.100000X-0.150000X0*%
G04 #@! TD*
G04 #@! TA.AperFunction,ComponentPad*
%ADD21C,2.100000*%
G04 #@! TD*
G04 #@! TA.AperFunction,ComponentPad*
%ADD22R,1.600000X2.400000*%
G04 #@! TD*
G04 #@! TA.AperFunction,ComponentPad*
%ADD23O,1.600000X2.400000*%
G04 #@! TD*
G04 #@! TA.AperFunction,ComponentPad*
%ADD24C,1.500000*%
G04 #@! TD*
G04 #@! TA.AperFunction,ComponentPad*
%ADD25R,2.400000X1.600000*%
G04 #@! TD*
G04 #@! TA.AperFunction,ComponentPad*
%ADD26O,2.400000X1.600000*%
G04 #@! TD*
G04 #@! TA.AperFunction,ComponentPad*
%ADD27R,1.980000X3.960000*%
G04 #@! TD*
G04 #@! TA.AperFunction,ComponentPad*
%ADD28O,1.980000X3.960000*%
G04 #@! TD*
G04 #@! TA.AperFunction,ComponentPad*
%ADD29R,2.000000X1.905000*%
G04 #@! TD*
G04 #@! TA.AperFunction,ComponentPad*
%ADD30O,2.000000X1.905000*%
G04 #@! TD*
G04 #@! TA.AperFunction,ViaPad*
%ADD31C,0.600000*%
G04 #@! TD*
G04 #@! TA.AperFunction,ViaPad*
%ADD32C,1.700000*%
G04 #@! TD*
G04 #@! TA.AperFunction,ViaPad*
%ADD33C,0.900000*%
G04 #@! TD*
G04 #@! TA.AperFunction,Conductor*
%ADD34C,0.400000*%
G04 #@! TD*
G04 #@! TA.AperFunction,Conductor*
%ADD35C,2.000000*%
G04 #@! TD*
G04 #@! TA.AperFunction,Conductor*
%ADD36C,0.600000*%
G04 #@! TD*
G04 #@! TA.AperFunction,Conductor*
%ADD37C,0.200000*%
G04 #@! TD*
G04 #@! TA.AperFunction,Conductor*
%ADD38C,4.000000*%
G04 #@! TD*
G04 #@! TA.AperFunction,Conductor*
%ADD39C,1.000000*%
G04 #@! TD*
G04 #@! TA.AperFunction,Conductor*
%ADD40C,0.127000*%
G04 #@! TD*
G04 APERTURE END LIST*
D10*
X74168000Y-83820000D03*
D11*
X87630000Y-51816000D03*
X90170000Y-51816000D03*
X92710000Y-51816000D03*
X95250000Y-51816000D03*
X97790000Y-51816000D03*
D12*
X100330000Y-51816000D03*
D13*
X124460000Y-81915000D03*
X124460000Y-84455000D03*
X121920000Y-81915000D03*
X121920000Y-84455000D03*
X119380000Y-81915000D03*
D10*
X119380000Y-84455000D03*
X91440000Y-60960000D03*
D14*
X74295000Y-107950000D03*
D11*
X74295000Y-115570000D03*
D15*
X109220000Y-91680000D03*
X109220000Y-121680000D03*
D16*
X101600000Y-61890000D03*
D17*
X99060000Y-61890000D03*
X96520000Y-61890000D03*
D10*
X144780000Y-68590000D03*
D13*
X144780000Y-71130000D03*
X144780000Y-73670000D03*
X144780000Y-76210000D03*
D10*
X91440000Y-66040000D03*
D14*
X87630000Y-55880000D03*
D11*
X80010000Y-55880000D03*
D18*
X137160000Y-83820000D03*
D19*
X137160000Y-91320000D03*
D14*
X87630000Y-66040000D03*
D11*
X80010000Y-66040000D03*
D20*
X137370000Y-73025000D03*
X137370000Y-71755000D03*
X137370000Y-70485000D03*
X137370000Y-69215000D03*
X131870000Y-69215000D03*
X131870000Y-70485000D03*
X131870000Y-71755000D03*
X131870000Y-73025000D03*
D12*
X90160000Y-118100000D03*
D11*
X90160000Y-115560000D03*
X90160000Y-113020000D03*
X90160000Y-110480000D03*
X90160000Y-107940000D03*
X90160000Y-105400000D03*
X90160000Y-102860000D03*
X90160000Y-100320000D03*
X90160000Y-97780000D03*
X90160000Y-95240000D03*
X90160000Y-92700000D03*
X90160000Y-90160000D03*
X90160000Y-87620000D03*
X90160000Y-85080000D03*
X82540000Y-85080000D03*
X82540000Y-87620000D03*
X82540000Y-90160000D03*
X82540000Y-92700000D03*
X82540000Y-95240000D03*
X82540000Y-97780000D03*
X82540000Y-100320000D03*
X82540000Y-102860000D03*
X82540000Y-105400000D03*
X82540000Y-107940000D03*
X82540000Y-110480000D03*
X82540000Y-113020000D03*
X82540000Y-115560000D03*
X82540000Y-118100000D03*
D14*
X74295000Y-124460000D03*
X74295000Y-119460000D03*
X114300000Y-127000000D03*
D11*
X106680000Y-127000000D03*
D12*
X78740000Y-114945000D03*
D11*
X78740000Y-112405000D03*
X78740000Y-109865000D03*
X78740000Y-107325000D03*
X78740000Y-104785000D03*
X78740000Y-102245000D03*
X78740000Y-99705000D03*
X78740000Y-97165000D03*
D21*
X74295000Y-104775000D03*
X74295000Y-102235000D03*
X74295000Y-99695000D03*
D14*
X119380000Y-59730000D03*
X119380000Y-64730000D03*
D22*
X68575000Y-52085000D03*
D23*
X71115000Y-52085000D03*
X73655000Y-52085000D03*
X76195000Y-52085000D03*
X78735000Y-52085000D03*
X81275000Y-52085000D03*
X83815000Y-52085000D03*
X83815000Y-44465000D03*
X81275000Y-44465000D03*
X78735000Y-44465000D03*
X76195000Y-44465000D03*
X73655000Y-44465000D03*
X71115000Y-44465000D03*
X68575000Y-44465000D03*
D21*
X74360370Y-94615000D03*
X74360370Y-92075000D03*
X74360370Y-89535000D03*
D16*
X113030000Y-62080000D03*
D17*
X110490000Y-62080000D03*
X107950000Y-62080000D03*
D14*
X86995000Y-81240000D03*
X86995000Y-76240000D03*
X104140000Y-127000000D03*
D11*
X96520000Y-127000000D03*
D22*
X114564000Y-52085000D03*
D23*
X117104000Y-52085000D03*
X119644000Y-52085000D03*
X122184000Y-52085000D03*
X122184000Y-44465000D03*
X119644000Y-44465000D03*
X117104000Y-44465000D03*
X114564000Y-44465000D03*
D14*
X103632000Y-51816000D03*
D11*
X111252000Y-51816000D03*
D24*
X95290000Y-85725000D03*
X100290000Y-85725000D03*
D12*
X92075000Y-45720000D03*
D11*
X94615000Y-45720000D03*
X97155000Y-45720000D03*
X99695000Y-45720000D03*
X102235000Y-45720000D03*
X104775000Y-45720000D03*
D12*
X132080000Y-76200000D03*
D11*
X139700000Y-76200000D03*
D14*
X115530000Y-85090000D03*
X110530000Y-85090000D03*
D10*
X79375000Y-72390000D03*
D12*
X76190000Y-55870000D03*
D11*
X68570000Y-55870000D03*
D20*
X125940000Y-133985000D03*
X125940000Y-132715000D03*
X125940000Y-131445000D03*
X125940000Y-130175000D03*
X120440000Y-130175000D03*
X120440000Y-131445000D03*
X120440000Y-132715000D03*
X120440000Y-133985000D03*
D25*
X68580000Y-59690000D03*
D26*
X68580000Y-62230000D03*
X68580000Y-64770000D03*
X68580000Y-67310000D03*
X76200000Y-67310000D03*
X76200000Y-64770000D03*
X76200000Y-62230000D03*
X76200000Y-59690000D03*
D27*
X139065000Y-59690000D03*
D28*
X134065000Y-59690000D03*
D18*
X137160000Y-110157780D03*
D19*
X137160000Y-102657780D03*
D10*
X143510000Y-116855000D03*
D13*
X143510000Y-119395000D03*
X143510000Y-121935000D03*
D12*
X127000000Y-118110000D03*
D11*
X134620000Y-118110000D03*
D14*
X127015000Y-55880000D03*
D11*
X127015000Y-63500000D03*
D14*
X106680000Y-55880000D03*
D11*
X99060000Y-55880000D03*
D14*
X86360000Y-60960000D03*
X81360000Y-60960000D03*
D10*
X86360000Y-129540000D03*
D13*
X83820000Y-129540000D03*
X81280000Y-129540000D03*
X78740000Y-129540000D03*
X76200000Y-129540000D03*
X73660000Y-129540000D03*
D10*
X143510000Y-125730000D03*
D13*
X143510000Y-128270000D03*
X143510000Y-130810000D03*
X143510000Y-133350000D03*
D10*
X91440000Y-55880000D03*
X97790000Y-132080000D03*
D13*
X100330000Y-132080000D03*
X102870000Y-132080000D03*
X105410000Y-132080000D03*
D10*
X144780000Y-55890000D03*
D13*
X144780000Y-58430000D03*
X144780000Y-60970000D03*
X144780000Y-63510000D03*
D29*
X123515000Y-69850000D03*
D30*
X123515000Y-72390000D03*
X123515000Y-74930000D03*
D14*
X118110000Y-55880000D03*
D11*
X110490000Y-55880000D03*
D27*
X130585000Y-128270000D03*
D28*
X135585000Y-128270000D03*
D14*
X91440000Y-76240000D03*
X91440000Y-81240000D03*
D10*
X69710000Y-125940000D03*
D13*
X67170000Y-125940000D03*
X69710000Y-123400000D03*
X67170000Y-123400000D03*
X69710000Y-120860000D03*
X67170000Y-120860000D03*
X69710000Y-118320000D03*
X67170000Y-118320000D03*
X69710000Y-115780000D03*
X67170000Y-115780000D03*
X69710000Y-113240000D03*
X67170000Y-113240000D03*
X69710000Y-110700000D03*
X67170000Y-110700000D03*
X69710000Y-108160000D03*
X67170000Y-108160000D03*
X69710000Y-105620000D03*
X67170000Y-105620000D03*
X69710000Y-103080000D03*
X67170000Y-103080000D03*
X69710000Y-100540000D03*
X67170000Y-100540000D03*
X69710000Y-98000000D03*
X67170000Y-98000000D03*
X69710000Y-95460000D03*
X67170000Y-95460000D03*
X69710000Y-92920000D03*
X67170000Y-92920000D03*
X69710000Y-90380000D03*
X67170000Y-90380000D03*
X69710000Y-87840000D03*
X67170000Y-87840000D03*
X69710000Y-85300000D03*
X67170000Y-85300000D03*
X69710000Y-82760000D03*
X67170000Y-82760000D03*
X69710000Y-80220000D03*
X67170000Y-80220000D03*
X69710000Y-77680000D03*
X67170000Y-77680000D03*
D31*
X79756000Y-53848000D03*
X71120000Y-74676000D03*
X77216000Y-74676000D03*
D32*
X94615000Y-64135000D03*
D33*
X119380000Y-128905000D03*
X129540000Y-68580000D03*
X121920000Y-124460000D03*
X107950000Y-111760000D03*
X123190000Y-130810000D03*
X104140000Y-106680000D03*
X102870000Y-100330000D03*
X102870000Y-105410000D03*
X101600000Y-120650000D03*
X93980000Y-120650000D03*
X84455000Y-95250000D03*
X80010000Y-92710000D03*
X78740000Y-92075000D03*
X92710000Y-99060000D03*
X101600000Y-118110000D03*
X96520000Y-113030000D03*
X84455000Y-93345000D03*
D32*
X88900000Y-46990000D03*
D33*
X76835000Y-94615000D03*
D34*
X93218000Y-53848000D02*
X79756000Y-53848000D01*
X95250000Y-51816000D02*
X93218000Y-53848000D01*
X68580000Y-64770000D02*
X69342000Y-64770000D01*
X69342000Y-64770000D02*
X71120000Y-66548000D01*
X71120000Y-66548000D02*
X71120000Y-74676000D01*
X68580000Y-64770000D02*
X67310000Y-64770000D01*
X74930000Y-82550000D02*
X71120000Y-78740000D01*
X71120000Y-78740000D02*
X71120000Y-76708000D01*
X70104000Y-75692000D02*
X67630999Y-75692000D01*
X71120000Y-76708000D02*
X70104000Y-75692000D01*
X67630999Y-75692000D02*
X65405000Y-73466001D01*
X65405000Y-73466001D02*
X65405000Y-52070000D01*
X65405000Y-52070000D02*
X67945000Y-49530000D01*
X67945000Y-49530000D02*
X78720000Y-49530000D01*
X78720000Y-49530000D02*
X81275000Y-52085000D01*
X78232000Y-74676000D02*
X77216000Y-74676000D01*
X79248000Y-75692000D02*
X78232000Y-74676000D01*
X90160000Y-85080000D02*
X88636000Y-85080000D01*
X88636000Y-85080000D02*
X79248000Y-75692000D01*
D35*
X80962500Y-80010000D02*
X78740000Y-80010000D01*
X89028630Y-102860000D02*
X87630000Y-101461370D01*
X87630000Y-86677500D02*
X80962500Y-80010000D01*
X90160000Y-102860000D02*
X89028630Y-102860000D01*
X87630000Y-101461370D02*
X87630000Y-86677500D01*
X78740000Y-80010000D02*
X74930000Y-76200000D01*
X74930000Y-76200000D02*
X74930000Y-72390000D01*
D34*
X92075000Y-48895000D02*
X111379000Y-48895000D01*
X90805000Y-48895000D02*
X92075000Y-48895000D01*
X92710000Y-49530000D02*
X92710000Y-51816000D01*
X92075000Y-48895000D02*
X92710000Y-49530000D01*
D36*
X108585000Y-45085000D02*
X109205000Y-44465000D01*
X109205000Y-44465000D02*
X114564000Y-44465000D01*
D37*
X104775000Y-45720000D02*
X105410000Y-46355000D01*
X113914000Y-46355000D02*
X119644000Y-52085000D01*
X105410000Y-46355000D02*
X113914000Y-46355000D01*
X99695000Y-45720000D02*
X99695000Y-46990000D01*
X100330000Y-47625000D02*
X112644000Y-47625000D01*
X99695000Y-46990000D02*
X100330000Y-47625000D01*
X112644000Y-47625000D02*
X117104000Y-52085000D01*
D34*
X88900000Y-46990000D02*
X90805000Y-48895000D01*
X114564000Y-52080000D02*
X114564000Y-52085000D01*
X111379000Y-48895000D02*
X114564000Y-52080000D01*
X74930000Y-82550000D02*
X74168000Y-83312000D01*
X74168000Y-83312000D02*
X74168000Y-83820000D01*
X78740000Y-86360000D02*
X74930000Y-82550000D01*
D35*
X124460000Y-81915000D02*
X123190000Y-80645000D01*
X123190000Y-80645000D02*
X123190000Y-80010000D01*
X121920000Y-81915000D02*
X124460000Y-81915000D01*
X119380000Y-81915000D02*
X121920000Y-81915000D01*
X115530000Y-85090000D02*
X115530000Y-83860000D01*
X115530000Y-83860000D02*
X117475000Y-81915000D01*
X117475000Y-81915000D02*
X119380000Y-81915000D01*
X95250000Y-130810000D02*
X96520000Y-129540000D01*
X97790000Y-129540000D02*
X99695000Y-127635000D01*
X96520000Y-129540000D02*
X97790000Y-129540000D01*
X99695000Y-127635000D02*
X99695000Y-117475000D01*
X95250000Y-132080000D02*
X95250000Y-130810000D01*
X99695000Y-117475000D02*
X121920000Y-95250000D01*
X121920000Y-95250000D02*
X121920000Y-84455000D01*
X81280000Y-129540000D02*
X81280000Y-128270000D01*
X92710000Y-127000000D02*
X96520000Y-123190000D01*
X81280000Y-128270000D02*
X82550000Y-127000000D01*
X96520000Y-116840000D02*
X119380000Y-93980000D01*
X82550000Y-127000000D02*
X92710000Y-127000000D01*
X96520000Y-123190000D02*
X96520000Y-116840000D01*
X119380000Y-93980000D02*
X119380000Y-84455000D01*
D38*
X139065000Y-60960000D02*
X139065000Y-59690000D01*
D39*
X76190000Y-59680000D02*
X76200000Y-59690000D01*
X76190000Y-55870000D02*
X76190000Y-59680000D01*
X96520000Y-66040000D02*
X101600000Y-66040000D01*
D35*
X104140000Y-65890000D02*
X104140000Y-66040000D01*
D38*
X105410000Y-67310000D02*
X104140000Y-66040000D01*
D39*
X77470000Y-63500000D02*
X81280000Y-63500000D01*
X91440000Y-60960000D02*
X90170000Y-60960000D01*
X87630000Y-63500000D02*
X81280000Y-63500000D01*
X94615000Y-64135000D02*
X96520000Y-66040000D01*
D35*
X106680000Y-67310000D02*
X105410000Y-67310000D01*
D39*
X90170000Y-60960000D02*
X87630000Y-63500000D01*
X81360000Y-63420000D02*
X81360000Y-60960000D01*
D40*
X109220000Y-91680000D02*
X109220000Y-91440000D01*
D38*
X104140000Y-66040000D02*
X101600000Y-66040000D01*
X105410000Y-87870000D02*
X105410000Y-67310000D01*
X109220000Y-91680000D02*
X105410000Y-87870000D01*
D35*
X107950000Y-62080000D02*
X104140000Y-65890000D01*
X99060000Y-61890000D02*
X99060000Y-63500000D01*
X99060000Y-63500000D02*
X101600000Y-66040000D01*
D39*
X76200000Y-64770000D02*
X77470000Y-63500000D01*
X81280000Y-63500000D02*
X81360000Y-63420000D01*
D34*
X73660000Y-125095000D02*
X74295000Y-124460000D01*
X73660000Y-129540000D02*
X73660000Y-125095000D01*
D36*
X119380000Y-130110000D02*
X119445000Y-130175000D01*
X132145000Y-69215000D02*
X130175000Y-69215000D01*
X119380000Y-128905000D02*
X119380000Y-130110000D01*
X130175000Y-69215000D02*
X129540000Y-68580000D01*
X119445000Y-133985000D02*
X121285000Y-133985000D01*
X123190000Y-130810000D02*
X123190000Y-133350000D01*
D39*
X74930000Y-69850000D02*
X73660000Y-68580000D01*
D36*
X128905000Y-73025000D02*
X132145000Y-73025000D01*
D39*
X68580000Y-59690000D02*
X68580000Y-55880000D01*
D35*
X115530000Y-93940000D02*
X106610000Y-102860000D01*
D36*
X104140000Y-106680000D02*
X104140000Y-102870000D01*
D39*
X128905000Y-74295000D02*
X123190000Y-80010000D01*
X88900000Y-42545000D02*
X106045000Y-42545000D01*
D36*
X121920000Y-124460000D02*
X120650000Y-124460000D01*
D39*
X71120000Y-48260000D02*
X83185000Y-48260000D01*
D36*
X123190000Y-133350000D02*
X122555000Y-133985000D01*
D39*
X73660000Y-64770000D02*
X68580000Y-59690000D01*
D36*
X122555000Y-133985000D02*
X120440000Y-133985000D01*
D39*
X83185000Y-48260000D02*
X88900000Y-42545000D01*
D35*
X74930000Y-72390000D02*
X79375000Y-72390000D01*
D39*
X73660000Y-68580000D02*
X73660000Y-64770000D01*
D35*
X106610000Y-102860000D02*
X104130000Y-102860000D01*
D37*
X76200000Y-106045000D02*
X74295000Y-107950000D01*
D39*
X106045000Y-42545000D02*
X108585000Y-45085000D01*
D35*
X74930000Y-72390000D02*
X74930000Y-69850000D01*
D39*
X68580000Y-55880000D02*
X68570000Y-55870000D01*
X128905000Y-73025000D02*
X128905000Y-74295000D01*
D37*
X80645000Y-106045000D02*
X76200000Y-106045000D01*
D36*
X120650000Y-124460000D02*
X107950000Y-111760000D01*
D37*
X81280000Y-99040000D02*
X81280000Y-105410000D01*
D39*
X68575000Y-44465000D02*
X68575000Y-45715000D01*
D35*
X104130000Y-102860000D02*
X99070000Y-102860000D01*
D39*
X68575000Y-45715000D02*
X71120000Y-48260000D01*
D36*
X104140000Y-102870000D02*
X104130000Y-102860000D01*
D35*
X99070000Y-102860000D02*
X90160000Y-102860000D01*
D37*
X81280000Y-105410000D02*
X80645000Y-106045000D01*
X82540000Y-97780000D02*
X81280000Y-99040000D01*
D35*
X115530000Y-85090000D02*
X115530000Y-93940000D01*
X132080000Y-86995000D02*
X132080000Y-76200000D01*
X129540000Y-115570000D02*
X129540000Y-89535000D01*
X127000000Y-118110000D02*
X129540000Y-115570000D01*
X129540000Y-89535000D02*
X132080000Y-86995000D01*
D34*
X117475000Y-78105000D02*
X113665000Y-81915000D01*
X126365000Y-74930000D02*
X123190000Y-78105000D01*
X84423870Y-109220000D02*
X83143870Y-107940000D01*
X113665000Y-93345000D02*
X106680000Y-100330000D01*
X113665000Y-81915000D02*
X113665000Y-93345000D01*
X106680000Y-100330000D02*
X102870000Y-100330000D01*
X102870000Y-105410000D02*
X99060000Y-109220000D01*
X128270000Y-71755000D02*
X126365000Y-73660000D01*
X132145000Y-71755000D02*
X128270000Y-71755000D01*
X99060000Y-109220000D02*
X84423870Y-109220000D01*
X123190000Y-78105000D02*
X117475000Y-78105000D01*
X126365000Y-73660000D02*
X126365000Y-74930000D01*
X83143870Y-107940000D02*
X82540000Y-107940000D01*
X111760000Y-129540000D02*
X104140000Y-129540000D01*
D36*
X119095000Y-132715000D02*
X119445000Y-132715000D01*
D34*
X83820000Y-114300000D02*
X82540000Y-113020000D01*
X93980000Y-120650000D02*
X92710000Y-119380000D01*
D36*
X114300000Y-132080000D02*
X114935000Y-132080000D01*
X116205000Y-133350000D02*
X118460000Y-133350000D01*
D34*
X114300000Y-132080000D02*
X111760000Y-129540000D01*
X91440000Y-114300000D02*
X83820000Y-114300000D01*
X101600000Y-127000000D02*
X101600000Y-120650000D01*
D36*
X114935000Y-132080000D02*
X116205000Y-133350000D01*
D34*
X92710000Y-119380000D02*
X92710000Y-115570000D01*
X92710000Y-115570000D02*
X91440000Y-114300000D01*
D36*
X118460000Y-133350000D02*
X119095000Y-132715000D01*
D34*
X104140000Y-129540000D02*
X101600000Y-127000000D01*
D37*
X74295000Y-119460000D02*
X88800000Y-119460000D01*
X73155000Y-118320000D02*
X74295000Y-119460000D01*
X69710000Y-118320000D02*
X73155000Y-118320000D01*
D34*
X74295000Y-119460000D02*
X74295000Y-115570000D01*
D37*
X88800000Y-119460000D02*
X90160000Y-118100000D01*
X100290000Y-93385000D02*
X100290000Y-85090000D01*
X91440000Y-81240000D02*
X95805000Y-81240000D01*
X90160000Y-97780000D02*
X95895000Y-97780000D01*
X95805000Y-81240000D02*
X100290000Y-85725000D01*
X95895000Y-97780000D02*
X100290000Y-93385000D01*
X88225000Y-81240000D02*
X90170000Y-83185000D01*
X92750000Y-83185000D02*
X95290000Y-85725000D01*
X90170000Y-83185000D02*
X92750000Y-83185000D01*
X86995000Y-81240000D02*
X88225000Y-81240000D01*
X95290000Y-85090000D02*
X95290000Y-90110000D01*
X95290000Y-90110000D02*
X90160000Y-95240000D01*
D34*
X78735000Y-52085000D02*
X78735000Y-52710000D01*
X67310000Y-64770000D02*
X66675000Y-64135000D01*
X78735000Y-52710000D02*
X77470000Y-53975000D01*
X70465000Y-53975000D02*
X68575000Y-52085000D01*
X77470000Y-53975000D02*
X70465000Y-53975000D01*
X66675000Y-64135000D02*
X66675000Y-53985000D01*
X66675000Y-53985000D02*
X68575000Y-52085000D01*
D37*
X80010000Y-113675000D02*
X78740000Y-114945000D01*
X83185000Y-109220000D02*
X81915000Y-109220000D01*
X80010000Y-111125000D02*
X80010000Y-113675000D01*
X81915000Y-109220000D02*
X80010000Y-111125000D01*
X90160000Y-110480000D02*
X84445000Y-110480000D01*
X84445000Y-110480000D02*
X83185000Y-109220000D01*
X80645000Y-107315000D02*
X80645000Y-107960000D01*
X80645000Y-107960000D02*
X78740000Y-109865000D01*
X81280000Y-106680000D02*
X80645000Y-107315000D01*
X90160000Y-107940000D02*
X88900000Y-106680000D01*
X88900000Y-106680000D02*
X81280000Y-106680000D01*
D34*
X89545000Y-43815000D02*
X95250000Y-43815000D01*
X95250000Y-43815000D02*
X97155000Y-45720000D01*
X85725000Y-103505000D02*
X85725000Y-88265000D01*
X81275000Y-52085000D02*
X89545000Y-43815000D01*
X85725000Y-88265000D02*
X83820000Y-86360000D01*
X83820000Y-86360000D02*
X78740000Y-86360000D01*
X87620000Y-105400000D02*
X85725000Y-103505000D01*
X90160000Y-105400000D02*
X87620000Y-105400000D01*
D37*
X80645000Y-102880000D02*
X78740000Y-104785000D01*
X84455000Y-95250000D02*
X83185000Y-96520000D01*
X80645000Y-97155000D02*
X80645000Y-102880000D01*
X83185000Y-96520000D02*
X81280000Y-96520000D01*
X81280000Y-96520000D02*
X80645000Y-97155000D01*
D34*
X80000000Y-85080000D02*
X72390000Y-77470000D01*
X82540000Y-85080000D02*
X80000000Y-85080000D01*
X72390000Y-77470000D02*
X72390000Y-66040000D01*
X72390000Y-66040000D02*
X68580000Y-62230000D01*
D37*
X69710000Y-103080000D02*
X72390000Y-100400000D01*
X81280000Y-91440000D02*
X82540000Y-90180000D01*
X78740000Y-95885000D02*
X81280000Y-93345000D01*
X73025000Y-97790000D02*
X76200000Y-97790000D01*
X72390000Y-100400000D02*
X72390000Y-98425000D01*
X81280000Y-93345000D02*
X81280000Y-91440000D01*
X82540000Y-90180000D02*
X82540000Y-90160000D01*
X78105000Y-95885000D02*
X78740000Y-95885000D01*
X72390000Y-98425000D02*
X73025000Y-97790000D01*
X76200000Y-97790000D02*
X78105000Y-95885000D01*
X76200000Y-97155000D02*
X72390000Y-97155000D01*
X80010000Y-93345000D02*
X76200000Y-97155000D01*
X80010000Y-92710000D02*
X80010000Y-93345000D01*
X71755000Y-98495000D02*
X69710000Y-100540000D01*
X72390000Y-97155000D02*
X71755000Y-97790000D01*
X71755000Y-97790000D02*
X71755000Y-98495000D01*
X78740000Y-93980000D02*
X76200000Y-96520000D01*
X76200000Y-96520000D02*
X71190000Y-96520000D01*
X71190000Y-96520000D02*
X69710000Y-98000000D01*
X78740000Y-92075000D02*
X78740000Y-93980000D01*
X111760000Y-55880000D02*
X115570000Y-59690000D01*
X115570000Y-78740000D02*
X112395000Y-81915000D01*
X111760000Y-55880000D02*
X110490000Y-55880000D01*
X115570000Y-59690000D02*
X115570000Y-78740000D01*
X112395000Y-81915000D02*
X112395000Y-93345000D01*
D36*
X106680000Y-55880000D02*
X109863000Y-55880000D01*
D37*
X106680000Y-99060000D02*
X92710000Y-99060000D01*
X112395000Y-93345000D02*
X106680000Y-99060000D01*
D34*
X104140000Y-127000000D02*
X102870000Y-125730000D01*
X95250000Y-111760000D02*
X83820000Y-111760000D01*
X102870000Y-119380000D02*
X101600000Y-118110000D01*
X83820000Y-111760000D02*
X82540000Y-110480000D01*
D39*
X106680000Y-127000000D02*
X104140000Y-127000000D01*
D34*
X96520000Y-113030000D02*
X95250000Y-111760000D01*
X102870000Y-125730000D02*
X102870000Y-119380000D01*
X80010000Y-58420000D02*
X80010000Y-55880000D01*
X76200000Y-62230000D02*
X80010000Y-58420000D01*
D36*
X123245000Y-59730000D02*
X127015000Y-63500000D01*
X119380000Y-59730000D02*
X123245000Y-59730000D01*
D34*
X76200000Y-67310000D02*
X77470000Y-66040000D01*
X77470000Y-66040000D02*
X80010000Y-66040000D01*
D35*
X129540000Y-55880000D02*
X127015000Y-55880000D01*
X118110000Y-55880000D02*
X127015000Y-55880000D01*
X135255000Y-69215000D02*
X134620000Y-69850000D01*
D39*
X135255000Y-69215000D02*
X137095000Y-69215000D01*
D36*
X137095000Y-69215000D02*
X137095000Y-70485000D01*
D35*
X130810000Y-62865000D02*
X130810000Y-57150000D01*
X130810000Y-57150000D02*
X129540000Y-55880000D01*
X135255000Y-67310000D02*
X130810000Y-62865000D01*
X135255000Y-69215000D02*
X135255000Y-67310000D01*
X134620000Y-69850000D02*
X134620000Y-77470000D01*
X137160000Y-80010000D02*
X137160000Y-83820000D01*
X134620000Y-77470000D02*
X137160000Y-80010000D01*
X123825000Y-125095000D02*
X123825000Y-127000000D01*
D36*
X125940000Y-130175000D02*
X125940000Y-131445000D01*
D38*
X109220000Y-121920000D02*
X114300000Y-127000000D01*
D35*
X137160000Y-111760000D02*
X123825000Y-125095000D01*
X123825000Y-127000000D02*
X125940000Y-129115000D01*
X137160000Y-110157780D02*
X137160000Y-111760000D01*
D38*
X109220000Y-121680000D02*
X109220000Y-121920000D01*
D35*
X125940000Y-129115000D02*
X125940000Y-130175000D01*
X114300000Y-127000000D02*
X123825000Y-127000000D01*
D34*
X81915000Y-86995000D02*
X82540000Y-87620000D01*
X71755000Y-86995000D02*
X81915000Y-86995000D01*
X70910000Y-87840000D02*
X71755000Y-86995000D01*
X69710000Y-87840000D02*
X70910000Y-87840000D01*
X111760000Y-58420000D02*
X113030000Y-59690000D01*
X87630000Y-55880000D02*
X91440000Y-55880000D01*
X91440000Y-55880000D02*
X96520000Y-55880000D01*
X99060000Y-58420000D02*
X111760000Y-58420000D01*
X96520000Y-55880000D02*
X99060000Y-58420000D01*
X113030000Y-59690000D02*
X113030000Y-62080000D01*
X99400000Y-59690000D02*
X101600000Y-61890000D01*
X96520000Y-59690000D02*
X99400000Y-59690000D01*
X87630000Y-66040000D02*
X91440000Y-66040000D01*
X91440000Y-66040000D02*
X91440000Y-64770000D01*
X91440000Y-64770000D02*
X96520000Y-59690000D01*
D37*
X80010000Y-95885000D02*
X80010000Y-99060000D01*
X81915000Y-93980000D02*
X80010000Y-95885000D01*
X79365000Y-99705000D02*
X78740000Y-99705000D01*
X84455000Y-93345000D02*
X83820000Y-93980000D01*
X83820000Y-93980000D02*
X81915000Y-93980000D01*
X80010000Y-99060000D02*
X79365000Y-99705000D01*
D34*
X74940000Y-112405000D02*
X72390000Y-109855000D01*
X72390000Y-109855000D02*
X72390000Y-106680000D01*
X72390000Y-106680000D02*
X74295000Y-104775000D01*
X78740000Y-112405000D02*
X74940000Y-112405000D01*
D37*
X76835000Y-92009630D02*
X74360370Y-89535000D01*
X76835000Y-94615000D02*
X76835000Y-92009630D01*
D35*
X144780000Y-60970000D02*
X144780000Y-58430000D01*
X138430000Y-74930000D02*
X139700000Y-76200000D01*
D38*
X140970000Y-71120000D02*
X140970000Y-60960000D01*
D35*
X138430000Y-74360000D02*
X137095000Y-73025000D01*
D38*
X139065000Y-60960000D02*
X140970000Y-60960000D01*
D35*
X137095000Y-73025000D02*
X137795000Y-73025000D01*
X138430000Y-74360000D02*
X138430000Y-74930000D01*
X139700000Y-72390000D02*
X140970000Y-71120000D01*
X137795000Y-73025000D02*
X139065000Y-73025000D01*
D36*
X137095000Y-73025000D02*
X137095000Y-71755000D01*
D35*
X144780000Y-55890000D02*
X144780000Y-58430000D01*
X140980000Y-60970000D02*
X144780000Y-60970000D01*
X139065000Y-73025000D02*
X139700000Y-72390000D01*
X144780000Y-60970000D02*
X144780000Y-63510000D01*
X130585000Y-130400000D02*
X130585000Y-128270000D01*
X143510000Y-128270000D02*
X143510000Y-130810000D01*
X143510000Y-125730000D02*
X140970000Y-125730000D01*
X143510000Y-130810000D02*
X143510000Y-133350000D01*
D38*
X139700000Y-125730000D02*
X134620000Y-120650000D01*
D35*
X130585000Y-124685000D02*
X134620000Y-120650000D01*
X134620000Y-120650000D02*
X134620000Y-118110000D01*
X143510000Y-125730000D02*
X143510000Y-128270000D01*
X130585000Y-128270000D02*
X130585000Y-124685000D01*
D36*
X125940000Y-132715000D02*
X125940000Y-133985000D01*
D35*
X125940000Y-133985000D02*
X127000000Y-133985000D01*
D38*
X140970000Y-125730000D02*
X139700000Y-125730000D01*
D35*
X127000000Y-133985000D02*
X130585000Y-130400000D01*
D37*
X102235000Y-45720000D02*
X104775000Y-45720000D01*
D34*
X73655000Y-52085000D02*
X76195000Y-52085000D01*
G04 #@! TA.AperFunction,Conductor*
G36*
X66342546Y-121940002D02*
G01*
X66354909Y-121949055D01*
X66388126Y-121976632D01*
X66392589Y-121979240D01*
X66461955Y-122019774D01*
X66510679Y-122071412D01*
X66523750Y-122141195D01*
X66497019Y-122206967D01*
X66456562Y-122240327D01*
X66448457Y-122244546D01*
X66439738Y-122250036D01*
X66269433Y-122377905D01*
X66261726Y-122384748D01*
X66114590Y-122538717D01*
X66108104Y-122546727D01*
X65988098Y-122722649D01*
X65983000Y-122731623D01*
X65893338Y-122924783D01*
X65889775Y-122934470D01*
X65834389Y-123134183D01*
X65835912Y-123142607D01*
X65848292Y-123146000D01*
X67298000Y-123146000D01*
X67366121Y-123166002D01*
X67412614Y-123219658D01*
X67424000Y-123272000D01*
X67424000Y-127258517D01*
X67428064Y-127272359D01*
X67441478Y-127274393D01*
X67448184Y-127273534D01*
X67458262Y-127271392D01*
X67662255Y-127210191D01*
X67671842Y-127206433D01*
X67863095Y-127112739D01*
X67871945Y-127107464D01*
X68045328Y-126983792D01*
X68053193Y-126977145D01*
X68157897Y-126872805D01*
X68220268Y-126838889D01*
X68291075Y-126844077D01*
X68347837Y-126886723D01*
X68364819Y-126917826D01*
X68409385Y-127036705D01*
X68496739Y-127153261D01*
X68529567Y-127177864D01*
X68572080Y-127234723D01*
X68580000Y-127278689D01*
X68580000Y-128800500D01*
X68559998Y-128868621D01*
X68506342Y-128915114D01*
X68454000Y-128926500D01*
X68370566Y-128926500D01*
X68368298Y-128926665D01*
X68368286Y-128926665D01*
X68236727Y-128936211D01*
X68167378Y-128941243D01*
X68162923Y-128942227D01*
X68162920Y-128942227D01*
X67904927Y-128999186D01*
X67904923Y-128999187D01*
X67900467Y-129000171D01*
X67772663Y-129048592D01*
X67649128Y-129095395D01*
X67649125Y-129095396D01*
X67644858Y-129097013D01*
X67405906Y-129229739D01*
X67188617Y-129395569D01*
X66997542Y-129591029D01*
X66994855Y-129594721D01*
X66994853Y-129594723D01*
X66839371Y-129808333D01*
X66839368Y-129808339D01*
X66836685Y-129812024D01*
X66834563Y-129816057D01*
X66834560Y-129816062D01*
X66765334Y-129947639D01*
X66709414Y-130053926D01*
X66618397Y-130311666D01*
X66617517Y-130316132D01*
X66570896Y-130552668D01*
X66565539Y-130579845D01*
X66565312Y-130584398D01*
X66565312Y-130584401D01*
X66552230Y-130847185D01*
X66551948Y-130852846D01*
X66577909Y-131124949D01*
X66578994Y-131129383D01*
X66578995Y-131129389D01*
X66621690Y-131303868D01*
X66642878Y-131390455D01*
X66644590Y-131394681D01*
X66644591Y-131394685D01*
X66714011Y-131566074D01*
X66745493Y-131643801D01*
X66883606Y-131879680D01*
X67054323Y-132093151D01*
X67254068Y-132279742D01*
X67478656Y-132435544D01*
X67605501Y-132498648D01*
X67719296Y-132555261D01*
X67719299Y-132555262D01*
X67723383Y-132557294D01*
X67983121Y-132642440D01*
X67987612Y-132643220D01*
X67987613Y-132643220D01*
X68248650Y-132688544D01*
X68248658Y-132688545D01*
X68252431Y-132689200D01*
X68256268Y-132689391D01*
X68337233Y-132693422D01*
X68337241Y-132693422D01*
X68338804Y-132693500D01*
X68509434Y-132693500D01*
X68511702Y-132693335D01*
X68511714Y-132693335D01*
X68643273Y-132683789D01*
X68712622Y-132678757D01*
X68717077Y-132677773D01*
X68717080Y-132677773D01*
X68975073Y-132620814D01*
X68975077Y-132620813D01*
X68979533Y-132619829D01*
X69149957Y-132555261D01*
X69230872Y-132524605D01*
X69230875Y-132524604D01*
X69235142Y-132522987D01*
X69474094Y-132390261D01*
X69691383Y-132224431D01*
X69882458Y-132028971D01*
X69988527Y-131883247D01*
X70040629Y-131811667D01*
X70040632Y-131811661D01*
X70043315Y-131807976D01*
X70045437Y-131803943D01*
X70045440Y-131803938D01*
X70168460Y-131570115D01*
X70168460Y-131570114D01*
X70170586Y-131566074D01*
X70261603Y-131308334D01*
X70296873Y-131129389D01*
X70313580Y-131044627D01*
X70313581Y-131044621D01*
X70314461Y-131040155D01*
X70319958Y-130929735D01*
X70343322Y-130862693D01*
X70399223Y-130818926D01*
X70445802Y-130810000D01*
X73154243Y-130810000D01*
X73199192Y-130818290D01*
X73279692Y-130849030D01*
X73284760Y-130850061D01*
X73284763Y-130850062D01*
X73320841Y-130857402D01*
X73498597Y-130893567D01*
X73503772Y-130893757D01*
X73503774Y-130893757D01*
X73716673Y-130901564D01*
X73716677Y-130901564D01*
X73721837Y-130901753D01*
X73726957Y-130901097D01*
X73726959Y-130901097D01*
X73938288Y-130874025D01*
X73938289Y-130874025D01*
X73943416Y-130873368D01*
X73948366Y-130871883D01*
X74136919Y-130815314D01*
X74173127Y-130810000D01*
X75694243Y-130810000D01*
X75739192Y-130818290D01*
X75819692Y-130849030D01*
X75824760Y-130850061D01*
X75824763Y-130850062D01*
X75860841Y-130857402D01*
X76038597Y-130893567D01*
X76043772Y-130893757D01*
X76043774Y-130893757D01*
X76256673Y-130901564D01*
X76256677Y-130901564D01*
X76261837Y-130901753D01*
X76266957Y-130901097D01*
X76266959Y-130901097D01*
X76478288Y-130874025D01*
X76478289Y-130874025D01*
X76483416Y-130873368D01*
X76488366Y-130871883D01*
X76676919Y-130815314D01*
X76713127Y-130810000D01*
X78234243Y-130810000D01*
X78279192Y-130818290D01*
X78359692Y-130849030D01*
X78364760Y-130850061D01*
X78364763Y-130850062D01*
X78400841Y-130857402D01*
X78578597Y-130893567D01*
X78583772Y-130893757D01*
X78583774Y-130893757D01*
X78796673Y-130901564D01*
X78796677Y-130901564D01*
X78801837Y-130901753D01*
X78806957Y-130901097D01*
X78806959Y-130901097D01*
X79018288Y-130874025D01*
X79018289Y-130874025D01*
X79023416Y-130873368D01*
X79028366Y-130871883D01*
X79216919Y-130815314D01*
X79253127Y-130810000D01*
X80429126Y-130810000D01*
X80492506Y-130827101D01*
X80621704Y-130902296D01*
X80621711Y-130902299D01*
X80626078Y-130904841D01*
X80630801Y-130906654D01*
X80847978Y-130990020D01*
X80847982Y-130990021D01*
X80852702Y-130991833D01*
X80857652Y-130992867D01*
X80857655Y-130992868D01*
X81085369Y-131040440D01*
X81085373Y-131040440D01*
X81090320Y-131041474D01*
X81332817Y-131052486D01*
X81337837Y-131051905D01*
X81337841Y-131051905D01*
X81568929Y-131025167D01*
X81568933Y-131025166D01*
X81573956Y-131024585D01*
X81578820Y-131023209D01*
X81578823Y-131023208D01*
X81802669Y-130959866D01*
X81802668Y-130959866D01*
X81807532Y-130958490D01*
X81812108Y-130956356D01*
X81812114Y-130956354D01*
X82022954Y-130858038D01*
X82022958Y-130858036D01*
X82027536Y-130855901D01*
X82050029Y-130840615D01*
X82063017Y-130831788D01*
X82133840Y-130810000D01*
X83314243Y-130810000D01*
X83359192Y-130818290D01*
X83439692Y-130849030D01*
X83444760Y-130850061D01*
X83444763Y-130850062D01*
X83480841Y-130857402D01*
X83658597Y-130893567D01*
X83663772Y-130893757D01*
X83663774Y-130893757D01*
X83876673Y-130901564D01*
X83876677Y-130901564D01*
X83881837Y-130901753D01*
X83886957Y-130901097D01*
X83886959Y-130901097D01*
X84098288Y-130874025D01*
X84098289Y-130874025D01*
X84103416Y-130873368D01*
X84108366Y-130871883D01*
X84296919Y-130815314D01*
X84333127Y-130810000D01*
X85180469Y-130810000D01*
X85248590Y-130830002D01*
X85256033Y-130835173D01*
X85256113Y-130835233D01*
X85256116Y-130835235D01*
X85263295Y-130840615D01*
X85399684Y-130891745D01*
X85461866Y-130898500D01*
X87258134Y-130898500D01*
X87320316Y-130891745D01*
X87456705Y-130840615D01*
X87463884Y-130835235D01*
X87463887Y-130835233D01*
X87463967Y-130835173D01*
X87464060Y-130835138D01*
X87471763Y-130830921D01*
X87472372Y-130832033D01*
X87530473Y-130810326D01*
X87539531Y-130810000D01*
X89433310Y-130810000D01*
X89501431Y-130830002D01*
X89547924Y-130883658D01*
X89558740Y-130924032D01*
X89577909Y-131124949D01*
X89578994Y-131129383D01*
X89578995Y-131129389D01*
X89621690Y-131303868D01*
X89642878Y-131390455D01*
X89644590Y-131394681D01*
X89644591Y-131394685D01*
X89714011Y-131566074D01*
X89745493Y-131643801D01*
X89883606Y-131879680D01*
X90054323Y-132093151D01*
X90254068Y-132279742D01*
X90478656Y-132435544D01*
X90605501Y-132498648D01*
X90719296Y-132555261D01*
X90719299Y-132555262D01*
X90723383Y-132557294D01*
X90983121Y-132642440D01*
X90987612Y-132643220D01*
X90987613Y-132643220D01*
X91248650Y-132688544D01*
X91248658Y-132688545D01*
X91252431Y-132689200D01*
X91256268Y-132689391D01*
X91337233Y-132693422D01*
X91337241Y-132693422D01*
X91338804Y-132693500D01*
X91509434Y-132693500D01*
X91511702Y-132693335D01*
X91511714Y-132693335D01*
X91643273Y-132683789D01*
X91712622Y-132678757D01*
X91717077Y-132677773D01*
X91717080Y-132677773D01*
X91975073Y-132620814D01*
X91975077Y-132620813D01*
X91979533Y-132619829D01*
X92149957Y-132555261D01*
X92230872Y-132524605D01*
X92230875Y-132524604D01*
X92235142Y-132522987D01*
X92474094Y-132390261D01*
X92691383Y-132224431D01*
X92882458Y-132028971D01*
X92988527Y-131883247D01*
X93040629Y-131811667D01*
X93040632Y-131811661D01*
X93043315Y-131807976D01*
X93045437Y-131803943D01*
X93045440Y-131803938D01*
X93168460Y-131570115D01*
X93168460Y-131570114D01*
X93170586Y-131566074D01*
X93261603Y-131308334D01*
X93296873Y-131129389D01*
X93313580Y-131044627D01*
X93313581Y-131044621D01*
X93314461Y-131040155D01*
X93319958Y-130929735D01*
X93343322Y-130862693D01*
X93399223Y-130818926D01*
X93445802Y-130810000D01*
X96373081Y-130810000D01*
X96441202Y-130830002D01*
X96487695Y-130883658D01*
X96497799Y-130953932D01*
X96488161Y-130982836D01*
X96489385Y-130983295D01*
X96438255Y-131119684D01*
X96431500Y-131181866D01*
X96431500Y-132978134D01*
X96438255Y-133040316D01*
X96489385Y-133176705D01*
X96494765Y-133183884D01*
X96494767Y-133183887D01*
X96494827Y-133183967D01*
X96494862Y-133184060D01*
X96499079Y-133191763D01*
X96497967Y-133192372D01*
X96519674Y-133250473D01*
X96520000Y-133259531D01*
X96520000Y-134494000D01*
X96499998Y-134562121D01*
X96446342Y-134608614D01*
X96394000Y-134620000D01*
X64896000Y-134620000D01*
X64827879Y-134599998D01*
X64781386Y-134546342D01*
X64770000Y-134494000D01*
X64770000Y-126207966D01*
X65838257Y-126207966D01*
X65868565Y-126342446D01*
X65871645Y-126352275D01*
X65951770Y-126549603D01*
X65956413Y-126558794D01*
X66067694Y-126740388D01*
X66073777Y-126748699D01*
X66213213Y-126909667D01*
X66220580Y-126916883D01*
X66384434Y-127052916D01*
X66392881Y-127058831D01*
X66576756Y-127166279D01*
X66586042Y-127170729D01*
X66785001Y-127246703D01*
X66794899Y-127249579D01*
X66898250Y-127270606D01*
X66912299Y-127269410D01*
X66916000Y-127259065D01*
X66916000Y-126212115D01*
X66911525Y-126196876D01*
X66910135Y-126195671D01*
X66902452Y-126194000D01*
X65853225Y-126194000D01*
X65839694Y-126197973D01*
X65838257Y-126207966D01*
X64770000Y-126207966D01*
X64770000Y-125674183D01*
X65834389Y-125674183D01*
X65835912Y-125682607D01*
X65848292Y-125686000D01*
X66897885Y-125686000D01*
X66913124Y-125681525D01*
X66914329Y-125680135D01*
X66916000Y-125672452D01*
X66916000Y-123672115D01*
X66911525Y-123656876D01*
X66910135Y-123655671D01*
X66902452Y-123654000D01*
X65853225Y-123654000D01*
X65839694Y-123657973D01*
X65838257Y-123667966D01*
X65868565Y-123802446D01*
X65871645Y-123812275D01*
X65951770Y-124009603D01*
X65956413Y-124018794D01*
X66067694Y-124200388D01*
X66073777Y-124208699D01*
X66213213Y-124369667D01*
X66220580Y-124376883D01*
X66384434Y-124512916D01*
X66392881Y-124518831D01*
X66462479Y-124559501D01*
X66511203Y-124611140D01*
X66524274Y-124680923D01*
X66497543Y-124746694D01*
X66457087Y-124780053D01*
X66448462Y-124784542D01*
X66439738Y-124790036D01*
X66269433Y-124917905D01*
X66261726Y-124924748D01*
X66114590Y-125078717D01*
X66108104Y-125086727D01*
X65988098Y-125262649D01*
X65983000Y-125271623D01*
X65893338Y-125464783D01*
X65889775Y-125474470D01*
X65834389Y-125674183D01*
X64770000Y-125674183D01*
X64770000Y-122046000D01*
X64790002Y-121977879D01*
X64843658Y-121931386D01*
X64896000Y-121920000D01*
X66274425Y-121920000D01*
X66342546Y-121940002D01*
G37*
G04 #@! TD.AperFunction*
M02*
