G04 #@! TF.GenerationSoftware,KiCad,Pcbnew,(6.0.6-0)*
G04 #@! TF.CreationDate,2022-09-27T20:01:57-07:00*
G04 #@! TF.ProjectId,Atverter_Ev1r4,41747665-7274-4657-925f-45763172342e,rev?*
G04 #@! TF.SameCoordinates,Original*
G04 #@! TF.FileFunction,Soldermask,Top*
G04 #@! TF.FilePolarity,Negative*
%FSLAX46Y46*%
G04 Gerber Fmt 4.6, Leading zero omitted, Abs format (unit mm)*
G04 Created by KiCad (PCBNEW (6.0.6-0)) date 2022-09-27 20:01:57*
%MOMM*%
%LPD*%
G01*
G04 APERTURE LIST*
G04 Aperture macros list*
%AMRoundRect*
0 Rectangle with rounded corners*
0 $1 Rounding radius*
0 $2 $3 $4 $5 $6 $7 $8 $9 X,Y pos of 4 corners*
0 Add a 4 corners polygon primitive as box body*
4,1,4,$2,$3,$4,$5,$6,$7,$8,$9,$2,$3,0*
0 Add four circle primitives for the rounded corners*
1,1,$1+$1,$2,$3*
1,1,$1+$1,$4,$5*
1,1,$1+$1,$6,$7*
1,1,$1+$1,$8,$9*
0 Add four rect primitives between the rounded corners*
20,1,$1+$1,$2,$3,$4,$5,0*
20,1,$1+$1,$4,$5,$6,$7,0*
20,1,$1+$1,$6,$7,$8,$9,0*
20,1,$1+$1,$8,$9,$2,$3,0*%
G04 Aperture macros list end*
%ADD10R,1.700000X1.700000*%
%ADD11O,1.600000X1.600000*%
%ADD12R,1.600000X1.600000*%
%ADD13O,1.700000X1.700000*%
%ADD14C,1.600000*%
%ADD15C,4.000000*%
%ADD16O,3.500000X3.500000*%
%ADD17R,1.905000X2.000000*%
%ADD18O,1.905000X2.000000*%
%ADD19R,2.400000X2.400000*%
%ADD20C,2.400000*%
%ADD21RoundRect,0.150000X1.100000X0.150000X-1.100000X0.150000X-1.100000X-0.150000X1.100000X-0.150000X0*%
%ADD22C,2.100000*%
%ADD23R,1.600000X2.400000*%
%ADD24O,1.600000X2.400000*%
%ADD25C,1.500000*%
%ADD26R,2.400000X1.600000*%
%ADD27O,2.400000X1.600000*%
%ADD28R,1.980000X3.960000*%
%ADD29O,1.980000X3.960000*%
%ADD30R,2.000000X1.905000*%
%ADD31O,2.000000X1.905000*%
G04 APERTURE END LIST*
D10*
X74168000Y-83820000D03*
D11*
X87630000Y-51816000D03*
X90170000Y-51816000D03*
X92710000Y-51816000D03*
X95250000Y-51816000D03*
X97790000Y-51816000D03*
D12*
X100330000Y-51816000D03*
D13*
X124460000Y-81915000D03*
X124460000Y-84455000D03*
X121920000Y-81915000D03*
X121920000Y-84455000D03*
X119380000Y-81915000D03*
D10*
X119380000Y-84455000D03*
X91440000Y-60960000D03*
D14*
X74295000Y-107950000D03*
D11*
X74295000Y-115570000D03*
D15*
X109220000Y-91680000D03*
X109220000Y-121680000D03*
D16*
X99060000Y-78550000D03*
D17*
X101600000Y-61890000D03*
D18*
X99060000Y-61890000D03*
X96520000Y-61890000D03*
D10*
X144780000Y-68590000D03*
D13*
X144780000Y-71130000D03*
X144780000Y-73670000D03*
X144780000Y-76210000D03*
D10*
X91440000Y-66040000D03*
D14*
X87630000Y-55880000D03*
D11*
X80010000Y-55880000D03*
D19*
X137160000Y-83820000D03*
D20*
X137160000Y-91320000D03*
D14*
X87630000Y-66040000D03*
D11*
X80010000Y-66040000D03*
D21*
X137370000Y-73025000D03*
X137370000Y-71755000D03*
X137370000Y-70485000D03*
X137370000Y-69215000D03*
X131870000Y-69215000D03*
X131870000Y-70485000D03*
X131870000Y-71755000D03*
X131870000Y-73025000D03*
D12*
X90160000Y-118100000D03*
D11*
X90160000Y-115560000D03*
X90160000Y-113020000D03*
X90160000Y-110480000D03*
X90160000Y-107940000D03*
X90160000Y-105400000D03*
X90160000Y-102860000D03*
X90160000Y-100320000D03*
X90160000Y-97780000D03*
X90160000Y-95240000D03*
X90160000Y-92700000D03*
X90160000Y-90160000D03*
X90160000Y-87620000D03*
X90160000Y-85080000D03*
X82540000Y-85080000D03*
X82540000Y-87620000D03*
X82540000Y-90160000D03*
X82540000Y-92700000D03*
X82540000Y-95240000D03*
X82540000Y-97780000D03*
X82540000Y-100320000D03*
X82540000Y-102860000D03*
X82540000Y-105400000D03*
X82540000Y-107940000D03*
X82540000Y-110480000D03*
X82540000Y-113020000D03*
X82540000Y-115560000D03*
X82540000Y-118100000D03*
D14*
X74295000Y-124460000D03*
X74295000Y-119460000D03*
X114300000Y-127000000D03*
D11*
X106680000Y-127000000D03*
D12*
X78740000Y-114945000D03*
D11*
X78740000Y-112405000D03*
X78740000Y-109865000D03*
X78740000Y-107325000D03*
X78740000Y-104785000D03*
X78740000Y-102245000D03*
X78740000Y-99705000D03*
X78740000Y-97165000D03*
D22*
X74295000Y-104775000D03*
X74295000Y-102235000D03*
X74295000Y-99695000D03*
D14*
X119380000Y-59730000D03*
X119380000Y-64730000D03*
D23*
X68575000Y-52085000D03*
D24*
X71115000Y-52085000D03*
X73655000Y-52085000D03*
X76195000Y-52085000D03*
X78735000Y-52085000D03*
X81275000Y-52085000D03*
X83815000Y-52085000D03*
X83815000Y-44465000D03*
X81275000Y-44465000D03*
X78735000Y-44465000D03*
X76195000Y-44465000D03*
X73655000Y-44465000D03*
X71115000Y-44465000D03*
X68575000Y-44465000D03*
D22*
X74360370Y-94615000D03*
X74360370Y-92075000D03*
X74360370Y-89535000D03*
D16*
X110490000Y-78740000D03*
D17*
X113030000Y-62080000D03*
D18*
X110490000Y-62080000D03*
X107950000Y-62080000D03*
D14*
X86995000Y-81240000D03*
X86995000Y-76240000D03*
X104140000Y-127000000D03*
D11*
X96520000Y-127000000D03*
D23*
X114564000Y-52085000D03*
D24*
X117104000Y-52085000D03*
X119644000Y-52085000D03*
X122184000Y-52085000D03*
X122184000Y-44465000D03*
X119644000Y-44465000D03*
X117104000Y-44465000D03*
X114564000Y-44465000D03*
D14*
X103632000Y-51816000D03*
D11*
X111252000Y-51816000D03*
D25*
X95290000Y-85725000D03*
X100290000Y-85725000D03*
D12*
X92075000Y-45720000D03*
D11*
X94615000Y-45720000D03*
X97155000Y-45720000D03*
X99695000Y-45720000D03*
X102235000Y-45720000D03*
X104775000Y-45720000D03*
D12*
X132080000Y-76200000D03*
D11*
X139700000Y-76200000D03*
D14*
X115530000Y-85090000D03*
X110530000Y-85090000D03*
D10*
X79375000Y-72390000D03*
D12*
X76190000Y-55870000D03*
D11*
X68570000Y-55870000D03*
D21*
X125940000Y-133985000D03*
X125940000Y-132715000D03*
X125940000Y-131445000D03*
X125940000Y-130175000D03*
X120440000Y-130175000D03*
X120440000Y-131445000D03*
X120440000Y-132715000D03*
X120440000Y-133985000D03*
D26*
X68580000Y-59690000D03*
D27*
X68580000Y-62230000D03*
X68580000Y-64770000D03*
X68580000Y-67310000D03*
X76200000Y-67310000D03*
X76200000Y-64770000D03*
X76200000Y-62230000D03*
X76200000Y-59690000D03*
D28*
X139065000Y-59690000D03*
D29*
X134065000Y-59690000D03*
D19*
X137160000Y-110157780D03*
D20*
X137160000Y-102657780D03*
D10*
X143510000Y-116855000D03*
D13*
X143510000Y-119395000D03*
X143510000Y-121935000D03*
D12*
X127000000Y-118110000D03*
D11*
X134620000Y-118110000D03*
D14*
X127015000Y-55880000D03*
D11*
X127015000Y-63500000D03*
D14*
X106680000Y-55880000D03*
D11*
X99060000Y-55880000D03*
D14*
X86360000Y-60960000D03*
X81360000Y-60960000D03*
D10*
X86360000Y-129540000D03*
D13*
X83820000Y-129540000D03*
X81280000Y-129540000D03*
X78740000Y-129540000D03*
X76200000Y-129540000D03*
X73660000Y-129540000D03*
D10*
X143510000Y-125730000D03*
D13*
X143510000Y-128270000D03*
X143510000Y-130810000D03*
X143510000Y-133350000D03*
D10*
X91440000Y-55880000D03*
X97790000Y-132080000D03*
D13*
X100330000Y-132080000D03*
X102870000Y-132080000D03*
X105410000Y-132080000D03*
D10*
X144780000Y-55890000D03*
D13*
X144780000Y-58430000D03*
X144780000Y-60970000D03*
X144780000Y-63510000D03*
D30*
X123515000Y-69850000D03*
D31*
X123515000Y-72390000D03*
X123515000Y-74930000D03*
D14*
X118110000Y-55880000D03*
D11*
X110490000Y-55880000D03*
D28*
X130585000Y-128270000D03*
D29*
X135585000Y-128270000D03*
D14*
X91440000Y-76240000D03*
X91440000Y-81240000D03*
D10*
X69710000Y-125940000D03*
D13*
X67170000Y-125940000D03*
X69710000Y-123400000D03*
X67170000Y-123400000D03*
X69710000Y-120860000D03*
X67170000Y-120860000D03*
X69710000Y-118320000D03*
X67170000Y-118320000D03*
X69710000Y-115780000D03*
X67170000Y-115780000D03*
X69710000Y-113240000D03*
X67170000Y-113240000D03*
X69710000Y-110700000D03*
X67170000Y-110700000D03*
X69710000Y-108160000D03*
X67170000Y-108160000D03*
X69710000Y-105620000D03*
X67170000Y-105620000D03*
X69710000Y-103080000D03*
X67170000Y-103080000D03*
X69710000Y-100540000D03*
X67170000Y-100540000D03*
X69710000Y-98000000D03*
X67170000Y-98000000D03*
X69710000Y-95460000D03*
X67170000Y-95460000D03*
X69710000Y-92920000D03*
X67170000Y-92920000D03*
X69710000Y-90380000D03*
X67170000Y-90380000D03*
X69710000Y-87840000D03*
X67170000Y-87840000D03*
X69710000Y-85300000D03*
X67170000Y-85300000D03*
X69710000Y-82760000D03*
X67170000Y-82760000D03*
X69710000Y-80220000D03*
X67170000Y-80220000D03*
X69710000Y-77680000D03*
X67170000Y-77680000D03*
M02*
